<mxfile host="app.diagrams.net" modified="2022-05-15T05:09:22.489Z" agent="5.0 (Windows NT 10.0; Win64; x64) AppleWebKit/537.36 (KHTML, like Gecko) Chrome/101.0.4951.67 Safari/537.36" etag="gdCbZEZpviBAhFIJGot6" version="18.0.4" type="github">
  <diagram id="C5RBs43oDa-KdzZeNtuy" name="Page-1">
    <mxGraphModel dx="1673" dy="1038" grid="1" gridSize="10" guides="1" tooltips="1" connect="1" arrows="1" fold="1" page="1" pageScale="1" pageWidth="827" pageHeight="1169" math="0" shadow="0">
      <root>
        <mxCell id="WIyWlLk6GJQsqaUBKTNV-0" />
        <mxCell id="WIyWlLk6GJQsqaUBKTNV-1" parent="WIyWlLk6GJQsqaUBKTNV-0" />
        <mxCell id="1izGnlHlUsiMyWZC1tlC-4" style="edgeStyle=orthogonalEdgeStyle;rounded=0;orthogonalLoop=1;jettySize=auto;html=1;entryX=0.5;entryY=0;entryDx=0;entryDy=0;" edge="1" parent="WIyWlLk6GJQsqaUBKTNV-1" source="WIyWlLk6GJQsqaUBKTNV-3" target="1izGnlHlUsiMyWZC1tlC-2">
          <mxGeometry relative="1" as="geometry">
            <mxPoint x="460" y="130" as="targetPoint" />
          </mxGeometry>
        </mxCell>
        <mxCell id="WIyWlLk6GJQsqaUBKTNV-3" value="设备连接" style="rounded=1;whiteSpace=wrap;html=1;fontSize=12;glass=0;strokeWidth=1;shadow=0;" parent="WIyWlLk6GJQsqaUBKTNV-1" vertex="1">
          <mxGeometry x="165" y="20" width="120" height="40" as="geometry" />
        </mxCell>
        <mxCell id="1izGnlHlUsiMyWZC1tlC-20" style="edgeStyle=orthogonalEdgeStyle;rounded=0;orthogonalLoop=1;jettySize=auto;html=1;entryX=0.5;entryY=0;entryDx=0;entryDy=0;" edge="1" parent="WIyWlLk6GJQsqaUBKTNV-1" source="1izGnlHlUsiMyWZC1tlC-2" target="1izGnlHlUsiMyWZC1tlC-17">
          <mxGeometry relative="1" as="geometry" />
        </mxCell>
        <mxCell id="1izGnlHlUsiMyWZC1tlC-2" value="读取配置文件" style="rounded=1;whiteSpace=wrap;html=1;" vertex="1" parent="WIyWlLk6GJQsqaUBKTNV-1">
          <mxGeometry x="394" y="60" width="120" height="60" as="geometry" />
        </mxCell>
        <mxCell id="1izGnlHlUsiMyWZC1tlC-11" value="no" style="edgeStyle=orthogonalEdgeStyle;rounded=0;orthogonalLoop=1;jettySize=auto;html=1;exitX=1;exitY=0.5;exitDx=0;exitDy=0;entryX=0.5;entryY=0;entryDx=0;entryDy=0;" edge="1" parent="WIyWlLk6GJQsqaUBKTNV-1" source="1izGnlHlUsiMyWZC1tlC-7" target="1izGnlHlUsiMyWZC1tlC-9">
          <mxGeometry relative="1" as="geometry" />
        </mxCell>
        <mxCell id="1izGnlHlUsiMyWZC1tlC-12" value="yes" style="edgeStyle=orthogonalEdgeStyle;rounded=0;orthogonalLoop=1;jettySize=auto;html=1;exitX=0.5;exitY=1;exitDx=0;exitDy=0;entryX=0.5;entryY=0;entryDx=0;entryDy=0;" edge="1" parent="WIyWlLk6GJQsqaUBKTNV-1" source="1izGnlHlUsiMyWZC1tlC-7" target="1izGnlHlUsiMyWZC1tlC-13">
          <mxGeometry relative="1" as="geometry">
            <mxPoint x="460" y="440" as="targetPoint" />
          </mxGeometry>
        </mxCell>
        <mxCell id="1izGnlHlUsiMyWZC1tlC-7" value="实时采集项目" style="rhombus;whiteSpace=wrap;html=1;" vertex="1" parent="WIyWlLk6GJQsqaUBKTNV-1">
          <mxGeometry x="390" y="360" width="80" height="80" as="geometry" />
        </mxCell>
        <mxCell id="1izGnlHlUsiMyWZC1tlC-51" style="edgeStyle=orthogonalEdgeStyle;rounded=0;orthogonalLoop=1;jettySize=auto;html=1;entryX=0.5;entryY=0;entryDx=0;entryDy=0;" edge="1" parent="WIyWlLk6GJQsqaUBKTNV-1" source="1izGnlHlUsiMyWZC1tlC-9" target="1izGnlHlUsiMyWZC1tlC-40">
          <mxGeometry relative="1" as="geometry">
            <Array as="points">
              <mxPoint x="580" y="590" />
              <mxPoint x="225" y="590" />
            </Array>
          </mxGeometry>
        </mxCell>
        <mxCell id="1izGnlHlUsiMyWZC1tlC-9" value="读取工程文件" style="rounded=1;whiteSpace=wrap;html=1;" vertex="1" parent="WIyWlLk6GJQsqaUBKTNV-1">
          <mxGeometry x="520" y="470" width="120" height="60" as="geometry" />
        </mxCell>
        <mxCell id="1izGnlHlUsiMyWZC1tlC-26" style="edgeStyle=orthogonalEdgeStyle;rounded=0;orthogonalLoop=1;jettySize=auto;html=1;entryX=0.5;entryY=0;entryDx=0;entryDy=0;" edge="1" parent="WIyWlLk6GJQsqaUBKTNV-1" source="1izGnlHlUsiMyWZC1tlC-13" target="1izGnlHlUsiMyWZC1tlC-40">
          <mxGeometry relative="1" as="geometry">
            <mxPoint x="500" y="570" as="targetPoint" />
            <Array as="points">
              <mxPoint x="430" y="590" />
              <mxPoint x="225" y="590" />
            </Array>
          </mxGeometry>
        </mxCell>
        <mxCell id="1izGnlHlUsiMyWZC1tlC-13" value="开启采集" style="rounded=1;whiteSpace=wrap;html=1;" vertex="1" parent="WIyWlLk6GJQsqaUBKTNV-1">
          <mxGeometry x="370" y="470" width="120" height="60" as="geometry" />
        </mxCell>
        <mxCell id="1izGnlHlUsiMyWZC1tlC-16" style="edgeStyle=orthogonalEdgeStyle;rounded=0;orthogonalLoop=1;jettySize=auto;html=1;entryX=0.5;entryY=0;entryDx=0;entryDy=0;" edge="1" parent="WIyWlLk6GJQsqaUBKTNV-1" source="1izGnlHlUsiMyWZC1tlC-14" target="1izGnlHlUsiMyWZC1tlC-7">
          <mxGeometry relative="1" as="geometry" />
        </mxCell>
        <mxCell id="1izGnlHlUsiMyWZC1tlC-14" value="新建采集" style="rounded=1;whiteSpace=wrap;html=1;" vertex="1" parent="WIyWlLk6GJQsqaUBKTNV-1">
          <mxGeometry x="160" y="310" width="120" height="50" as="geometry" />
        </mxCell>
        <mxCell id="1izGnlHlUsiMyWZC1tlC-22" style="edgeStyle=orthogonalEdgeStyle;rounded=0;orthogonalLoop=1;jettySize=auto;html=1;exitX=1;exitY=0.5;exitDx=0;exitDy=0;entryX=0.5;entryY=0;entryDx=0;entryDy=0;" edge="1" parent="WIyWlLk6GJQsqaUBKTNV-1" source="1izGnlHlUsiMyWZC1tlC-17" target="1izGnlHlUsiMyWZC1tlC-21">
          <mxGeometry relative="1" as="geometry" />
        </mxCell>
        <mxCell id="1izGnlHlUsiMyWZC1tlC-17" value="采集前设置、导入模型" style="rounded=1;whiteSpace=wrap;html=1;" vertex="1" parent="WIyWlLk6GJQsqaUBKTNV-1">
          <mxGeometry x="155" y="160" width="130" height="60" as="geometry" />
        </mxCell>
        <mxCell id="1izGnlHlUsiMyWZC1tlC-23" style="edgeStyle=orthogonalEdgeStyle;rounded=0;orthogonalLoop=1;jettySize=auto;html=1;entryX=0.5;entryY=0;entryDx=0;entryDy=0;" edge="1" parent="WIyWlLk6GJQsqaUBKTNV-1" source="1izGnlHlUsiMyWZC1tlC-21" target="1izGnlHlUsiMyWZC1tlC-14">
          <mxGeometry relative="1" as="geometry" />
        </mxCell>
        <mxCell id="1izGnlHlUsiMyWZC1tlC-21" value="更新设置" style="rounded=1;whiteSpace=wrap;html=1;" vertex="1" parent="WIyWlLk6GJQsqaUBKTNV-1">
          <mxGeometry x="400" y="220" width="120" height="60" as="geometry" />
        </mxCell>
        <mxCell id="1izGnlHlUsiMyWZC1tlC-28" value="三维模型显示" style="rounded=1;whiteSpace=wrap;html=1;" vertex="1" parent="WIyWlLk6GJQsqaUBKTNV-1">
          <mxGeometry x="690" y="740" width="120" height="60" as="geometry" />
        </mxCell>
        <mxCell id="1izGnlHlUsiMyWZC1tlC-39" style="edgeStyle=orthogonalEdgeStyle;rounded=0;orthogonalLoop=1;jettySize=auto;html=1;entryX=0.5;entryY=0;entryDx=0;entryDy=0;" edge="1" parent="WIyWlLk6GJQsqaUBKTNV-1" source="1izGnlHlUsiMyWZC1tlC-30" target="1izGnlHlUsiMyWZC1tlC-28">
          <mxGeometry relative="1" as="geometry" />
        </mxCell>
        <mxCell id="1izGnlHlUsiMyWZC1tlC-30" value="模型导入" style="rounded=1;whiteSpace=wrap;html=1;" vertex="1" parent="WIyWlLk6GJQsqaUBKTNV-1">
          <mxGeometry x="690" y="220" width="120" height="60" as="geometry" />
        </mxCell>
        <mxCell id="1izGnlHlUsiMyWZC1tlC-38" value="" style="endArrow=classic;html=1;rounded=0;entryX=0.5;entryY=0;entryDx=0;entryDy=0;" edge="1" parent="WIyWlLk6GJQsqaUBKTNV-1" target="1izGnlHlUsiMyWZC1tlC-30">
          <mxGeometry width="50" height="50" relative="1" as="geometry">
            <mxPoint x="290" y="190" as="sourcePoint" />
            <mxPoint x="650" y="170" as="targetPoint" />
            <Array as="points">
              <mxPoint x="750" y="190" />
            </Array>
          </mxGeometry>
        </mxCell>
        <mxCell id="1izGnlHlUsiMyWZC1tlC-43" value="" style="edgeStyle=orthogonalEdgeStyle;rounded=0;orthogonalLoop=1;jettySize=auto;html=1;entryX=0.5;entryY=0;entryDx=0;entryDy=0;" edge="1" parent="WIyWlLk6GJQsqaUBKTNV-1" source="1izGnlHlUsiMyWZC1tlC-40" target="1izGnlHlUsiMyWZC1tlC-42">
          <mxGeometry relative="1" as="geometry">
            <Array as="points">
              <mxPoint x="470" y="640" />
            </Array>
          </mxGeometry>
        </mxCell>
        <mxCell id="1izGnlHlUsiMyWZC1tlC-40" value="控制指令" style="rounded=1;whiteSpace=wrap;html=1;" vertex="1" parent="WIyWlLk6GJQsqaUBKTNV-1">
          <mxGeometry x="165" y="610" width="120" height="60" as="geometry" />
        </mxCell>
        <mxCell id="1izGnlHlUsiMyWZC1tlC-52" style="edgeStyle=orthogonalEdgeStyle;rounded=0;orthogonalLoop=1;jettySize=auto;html=1;entryX=0.5;entryY=0;entryDx=0;entryDy=0;" edge="1" parent="WIyWlLk6GJQsqaUBKTNV-1" source="1izGnlHlUsiMyWZC1tlC-42" target="1izGnlHlUsiMyWZC1tlC-49">
          <mxGeometry relative="1" as="geometry" />
        </mxCell>
        <mxCell id="1izGnlHlUsiMyWZC1tlC-42" value="采集控制" style="rounded=1;whiteSpace=wrap;html=1;" vertex="1" parent="WIyWlLk6GJQsqaUBKTNV-1">
          <mxGeometry x="410" y="660" width="120" height="60" as="geometry" />
        </mxCell>
        <mxCell id="1izGnlHlUsiMyWZC1tlC-53" style="edgeStyle=orthogonalEdgeStyle;rounded=0;orthogonalLoop=1;jettySize=auto;html=1;entryX=0;entryY=0.5;entryDx=0;entryDy=0;" edge="1" parent="WIyWlLk6GJQsqaUBKTNV-1" source="1izGnlHlUsiMyWZC1tlC-49" target="1izGnlHlUsiMyWZC1tlC-28">
          <mxGeometry relative="1" as="geometry" />
        </mxCell>
        <mxCell id="1izGnlHlUsiMyWZC1tlC-55" style="edgeStyle=orthogonalEdgeStyle;rounded=0;orthogonalLoop=1;jettySize=auto;html=1;entryX=0.5;entryY=0;entryDx=0;entryDy=0;" edge="1" parent="WIyWlLk6GJQsqaUBKTNV-1" source="1izGnlHlUsiMyWZC1tlC-49" target="1izGnlHlUsiMyWZC1tlC-54">
          <mxGeometry relative="1" as="geometry" />
        </mxCell>
        <mxCell id="1izGnlHlUsiMyWZC1tlC-49" value="数据读取、广播" style="rounded=1;whiteSpace=wrap;html=1;" vertex="1" parent="WIyWlLk6GJQsqaUBKTNV-1">
          <mxGeometry x="410" y="740" width="120" height="60" as="geometry" />
        </mxCell>
        <mxCell id="1izGnlHlUsiMyWZC1tlC-57" value="" style="edgeStyle=orthogonalEdgeStyle;rounded=0;orthogonalLoop=1;jettySize=auto;html=1;" edge="1" parent="WIyWlLk6GJQsqaUBKTNV-1" source="1izGnlHlUsiMyWZC1tlC-54" target="1izGnlHlUsiMyWZC1tlC-56">
          <mxGeometry relative="1" as="geometry">
            <Array as="points">
              <mxPoint x="470" y="860" />
            </Array>
          </mxGeometry>
        </mxCell>
        <mxCell id="1izGnlHlUsiMyWZC1tlC-54" value="保存关闭" style="rounded=1;whiteSpace=wrap;html=1;" vertex="1" parent="WIyWlLk6GJQsqaUBKTNV-1">
          <mxGeometry x="170" y="830" width="120" height="60" as="geometry" />
        </mxCell>
        <mxCell id="1izGnlHlUsiMyWZC1tlC-56" value="保存项目文件" style="rounded=1;whiteSpace=wrap;html=1;" vertex="1" parent="WIyWlLk6GJQsqaUBKTNV-1">
          <mxGeometry x="410" y="920" width="120" height="60" as="geometry" />
        </mxCell>
      </root>
    </mxGraphModel>
  </diagram>
</mxfile>
